<?xml version="1.0" encoding="UTF-8" standalone="no"?>
<svg
   xmlns:dc="http://purl.org/dc/elements/1.1/"
   xmlns:cc="http://creativecommons.org/ns#"
   xmlns:rdf="http://www.w3.org/1999/02/22-rdf-syntax-ns#"
   xmlns:svg="http://www.w3.org/2000/svg"
   xmlns="http://www.w3.org/2000/svg"
   viewBox="0 0 639.86353 392.2923"
   height="392.2923"
   width="639.86353"
   id="svg110"
   version="1.1">
  <metadata
     id="metadata116">
    <rdf:RDF>
      <cc:Work
         rdf:about="">
        <dc:format>image/svg+xml</dc:format>
        <dc:type
           rdf:resource="http://purl.org/dc/dcmitype/StillImage" />
        <dc:title></dc:title>
      </cc:Work>
    </rdf:RDF>
  </metadata>
  <defs
     id="defs114" />
  <g
     transform="translate(-650.2278,-119.00885)"
     id="g118">
    <path
       id="path122"
       d="m 700.47044,509.48646 c -2.01667,-1.23161 -3.6656,-2.55033 -3.66429,-2.93048 10e-4,-0.38015 2.85132,-2.48045 6.33334,-4.66736 9.52395,-5.98156 28.5754,-24.92971 35.61467,-35.42156 11.3617,-16.93433 20.26948,-40.55699 22.73517,-60.29172 l 0.87704,-7.01956 -11.36241,-3.70032 c -24.60639,-8.01341 -52.9323,-24.81065 -67.04209,-39.75592 -17.75679,-18.80821 -27.80043,-39.76065 -31.87771,-66.5014 -6.60401,-43.31229 4.59706,-86.35718 30.65399,-117.80099 22.1172,-26.68961 47.90975,-42.64443 80.21396,-49.61895 12.65441,-2.7321 42.41485,-3.1328 55.185,-0.74301 27.88564,5.21847 50.85359,17.67128 70.73924,38.35354 18.32852,19.06275 29.41464,39.51189 36.76162,67.80941 3.60016,13.86636 3.80834,16.19451 3.81525,42.66667 0.005,21.69984 -0.53167,30.65387 -2.38805,39.79468 -9.35304,46.05435 -35.02572,90.48257 -73.72487,127.58561 -40.52526,38.85384 -84.49292,61.0352 -146.53653,73.92659 -1.46667,0.30473 -4.31667,-0.45362 -6.33333,-1.68523 z m 358.99996,-0.25711 c -3.793,-2.90613 -4.2818,-2.25609 8.9147,-11.8547 27.1894,-19.77644 45.9814,-51.29756 51.6379,-86.61603 1.3,-8.11684 1.3753,-11.23921 0.2798,-11.60045 -36.4094,-12.00559 -59.2754,-25.37287 -78.4336,-45.85177 -15.8231,-16.91383 -24.1387,-33.4101 -29.2006,-57.92738 -3.9421,-19.09378 -3.0711,-50.07505 1.9544,-69.51421 8.7817,-33.96897 32.5951,-66.89161 61.9801,-85.68896 43.8796,-28.06944 105.9704,-28.23909 148.5879,-0.40598 58.0427,37.90714 79.9973,117.39523 54.2155,196.29067 -16.9002,51.71659 -61.9349,106.53281 -112.7295,137.21417 -25.7081,15.52843 -62.222,30.049 -88.5399,35.2099 -6.2333,1.22234 -12.2333,2.4646 -13.3333,2.76054 -1.1,0.29596 -3.5,-0.61114 -5.3334,-2.0158 z"
       style="fill:#000000;stroke-width:1.33333" />
  </g>
</svg>
